<mxfile host="app.diagrams.net" modified="2022-04-12T01:22:19.163Z" agent="5.0 (Windows NT 10.0; Win64; x64) AppleWebKit/537.36 (KHTML, like Gecko) Chrome/100.0.4896.60 Safari/537.36" etag="1hHtBgO9MLDNFRQJrU3z" version="17.4.3" type="github">
  <diagram id="7b7k756cZAZ67aCkkrVC" name="第 1 页">
    <mxGraphModel dx="942" dy="642" grid="1" gridSize="10" guides="1" tooltips="1" connect="1" arrows="1" fold="1" page="1" pageScale="1" pageWidth="827" pageHeight="1169" math="0" shadow="0">
      <root>
        <mxCell id="0" />
        <mxCell id="1" parent="0" />
        <mxCell id="kbVB1F1J7AXxcDOfMCZD-2" value="" style="rounded=0;whiteSpace=wrap;html=1;" vertex="1" parent="1">
          <mxGeometry x="49" y="300" width="730" height="340" as="geometry" />
        </mxCell>
        <mxCell id="kbVB1F1J7AXxcDOfMCZD-4" value="task queue" style="swimlane;childLayout=stackLayout;resizeParent=1;resizeParentMax=0;horizontal=1;startSize=20;horizontalStack=0;" vertex="1" parent="1">
          <mxGeometry x="150" y="410" width="130" height="120" as="geometry">
            <mxRectangle x="180" y="150" width="60" height="20" as="alternateBounds" />
          </mxGeometry>
        </mxCell>
        <mxCell id="kbVB1F1J7AXxcDOfMCZD-5" value="task1" style="swimlane;startSize=20;horizontal=0;" vertex="1" collapsed="1" parent="kbVB1F1J7AXxcDOfMCZD-4">
          <mxGeometry y="20" width="130" height="20" as="geometry">
            <mxRectangle y="20" width="120" height="120" as="alternateBounds" />
          </mxGeometry>
        </mxCell>
        <mxCell id="kbVB1F1J7AXxcDOfMCZD-6" value="task2" style="swimlane;startSize=20;horizontal=0;" vertex="1" collapsed="1" parent="kbVB1F1J7AXxcDOfMCZD-4">
          <mxGeometry y="40" width="130" height="20" as="geometry">
            <mxRectangle y="140" width="120" height="120" as="alternateBounds" />
          </mxGeometry>
        </mxCell>
        <mxCell id="kbVB1F1J7AXxcDOfMCZD-7" value="task3" style="swimlane;startSize=20;horizontal=0;" vertex="1" collapsed="1" parent="kbVB1F1J7AXxcDOfMCZD-4">
          <mxGeometry y="60" width="130" height="20" as="geometry">
            <mxRectangle y="160" width="120" height="120" as="alternateBounds" />
          </mxGeometry>
        </mxCell>
        <mxCell id="kbVB1F1J7AXxcDOfMCZD-8" value="..." style="swimlane;startSize=20;horizontal=0;" vertex="1" collapsed="1" parent="kbVB1F1J7AXxcDOfMCZD-4">
          <mxGeometry y="80" width="130" height="20" as="geometry">
            <mxRectangle y="160" width="120" height="120" as="alternateBounds" />
          </mxGeometry>
        </mxCell>
        <mxCell id="kbVB1F1J7AXxcDOfMCZD-9" value="taskn" style="swimlane;startSize=20;horizontal=0;" vertex="1" collapsed="1" parent="kbVB1F1J7AXxcDOfMCZD-4">
          <mxGeometry y="100" width="130" height="20" as="geometry">
            <mxRectangle y="160" width="120" height="120" as="alternateBounds" />
          </mxGeometry>
        </mxCell>
        <mxCell id="kbVB1F1J7AXxcDOfMCZD-12" value="" style="endArrow=classic;html=1;rounded=0;" edge="1" parent="1">
          <mxGeometry width="50" height="50" relative="1" as="geometry">
            <mxPoint x="130" y="570" as="sourcePoint" />
            <mxPoint x="180" y="520" as="targetPoint" />
          </mxGeometry>
        </mxCell>
        <mxCell id="kbVB1F1J7AXxcDOfMCZD-13" value="push" style="text;html=1;resizable=0;autosize=1;align=center;verticalAlign=middle;points=[];fillColor=none;strokeColor=none;rounded=0;" vertex="1" parent="1">
          <mxGeometry x="140" y="560" width="40" height="20" as="geometry" />
        </mxCell>
        <mxCell id="kbVB1F1J7AXxcDOfMCZD-14" value="" style="whiteSpace=wrap;html=1;aspect=fixed;" vertex="1" parent="1">
          <mxGeometry x="360" y="410" width="120" height="120" as="geometry" />
        </mxCell>
        <mxCell id="kbVB1F1J7AXxcDOfMCZD-15" value="thread pool" style="text;html=1;resizable=0;autosize=1;align=center;verticalAlign=middle;points=[];fillColor=none;strokeColor=none;rounded=0;" vertex="1" parent="1">
          <mxGeometry x="374" y="540" width="80" height="20" as="geometry" />
        </mxCell>
        <mxCell id="kbVB1F1J7AXxcDOfMCZD-17" value="T1" style="whiteSpace=wrap;html=1;aspect=fixed;" vertex="1" parent="1">
          <mxGeometry x="374" y="420" width="20" height="20" as="geometry" />
        </mxCell>
        <mxCell id="kbVB1F1J7AXxcDOfMCZD-18" value="T2" style="whiteSpace=wrap;html=1;aspect=fixed;" vertex="1" parent="1">
          <mxGeometry x="404" y="430" width="20" height="20" as="geometry" />
        </mxCell>
        <mxCell id="kbVB1F1J7AXxcDOfMCZD-20" value="T5" style="whiteSpace=wrap;html=1;aspect=fixed;" vertex="1" parent="1">
          <mxGeometry x="414" y="456" width="20" height="20" as="geometry" />
        </mxCell>
        <mxCell id="kbVB1F1J7AXxcDOfMCZD-21" value="T6" style="whiteSpace=wrap;html=1;aspect=fixed;" vertex="1" parent="1">
          <mxGeometry x="444" y="450" width="20" height="20" as="geometry" />
        </mxCell>
        <mxCell id="kbVB1F1J7AXxcDOfMCZD-22" value="T3" style="whiteSpace=wrap;html=1;aspect=fixed;" vertex="1" parent="1">
          <mxGeometry x="434" y="487" width="20" height="20" as="geometry" />
        </mxCell>
        <mxCell id="kbVB1F1J7AXxcDOfMCZD-23" value="T4" style="whiteSpace=wrap;html=1;aspect=fixed;" vertex="1" parent="1">
          <mxGeometry x="380" y="482" width="20" height="20" as="geometry" />
        </mxCell>
        <mxCell id="kbVB1F1J7AXxcDOfMCZD-24" value="线程池中的线程一般略多于核心数" style="text;html=1;resizable=0;autosize=1;align=center;verticalAlign=middle;points=[];fillColor=none;strokeColor=none;rounded=0;" vertex="1" parent="1">
          <mxGeometry x="314" y="560" width="200" height="20" as="geometry" />
        </mxCell>
        <mxCell id="kbVB1F1J7AXxcDOfMCZD-25" value="" style="whiteSpace=wrap;html=1;aspect=fixed;" vertex="1" parent="1">
          <mxGeometry x="580" y="396" width="144" height="144" as="geometry" />
        </mxCell>
        <mxCell id="kbVB1F1J7AXxcDOfMCZD-26" value="" style="curved=1;endArrow=classic;html=1;rounded=0;entryX=0.116;entryY=0.005;entryDx=0;entryDy=0;entryPerimeter=0;" edge="1" parent="1" target="kbVB1F1J7AXxcDOfMCZD-25">
          <mxGeometry width="50" height="50" relative="1" as="geometry">
            <mxPoint x="240" y="410" as="sourcePoint" />
            <mxPoint x="290" y="360" as="targetPoint" />
            <Array as="points">
              <mxPoint x="290" y="410" />
              <mxPoint x="240" y="360" />
            </Array>
          </mxGeometry>
        </mxCell>
        <mxCell id="kbVB1F1J7AXxcDOfMCZD-27" value="" style="endArrow=classic;html=1;rounded=0;" edge="1" parent="1">
          <mxGeometry width="50" height="50" relative="1" as="geometry">
            <mxPoint x="424" y="410" as="sourcePoint" />
            <mxPoint x="460" y="380" as="targetPoint" />
          </mxGeometry>
        </mxCell>
        <mxCell id="kbVB1F1J7AXxcDOfMCZD-28" value="pop" style="text;html=1;resizable=0;autosize=1;align=center;verticalAlign=middle;points=[];fillColor=none;strokeColor=none;rounded=0;" vertex="1" parent="1">
          <mxGeometry x="240" y="350" width="40" height="20" as="geometry" />
        </mxCell>
        <mxCell id="kbVB1F1J7AXxcDOfMCZD-29" value="thread_run" style="text;html=1;resizable=0;autosize=1;align=center;verticalAlign=middle;points=[];fillColor=none;strokeColor=none;rounded=0;" vertex="1" parent="1">
          <mxGeometry x="439" y="360" width="70" height="20" as="geometry" />
        </mxCell>
        <mxCell id="kbVB1F1J7AXxcDOfMCZD-30" value="CPU（此处为4核）" style="text;html=1;resizable=0;autosize=1;align=center;verticalAlign=middle;points=[];fillColor=none;strokeColor=none;rounded=0;" vertex="1" parent="1">
          <mxGeometry x="580" y="550" width="120" height="20" as="geometry" />
        </mxCell>
        <mxCell id="kbVB1F1J7AXxcDOfMCZD-31" value="C1" style="whiteSpace=wrap;html=1;aspect=fixed;" vertex="1" parent="1">
          <mxGeometry x="610" y="420" width="30" height="30" as="geometry" />
        </mxCell>
        <mxCell id="kbVB1F1J7AXxcDOfMCZD-32" value="C2" style="whiteSpace=wrap;html=1;aspect=fixed;" vertex="1" parent="1">
          <mxGeometry x="670" y="420" width="30" height="30" as="geometry" />
        </mxCell>
        <mxCell id="kbVB1F1J7AXxcDOfMCZD-33" value="C3" style="whiteSpace=wrap;html=1;aspect=fixed;" vertex="1" parent="1">
          <mxGeometry x="610" y="482" width="30" height="30" as="geometry" />
        </mxCell>
        <mxCell id="kbVB1F1J7AXxcDOfMCZD-34" value="C4" style="whiteSpace=wrap;html=1;aspect=fixed;" vertex="1" parent="1">
          <mxGeometry x="670" y="482" width="30" height="30" as="geometry" />
        </mxCell>
      </root>
    </mxGraphModel>
  </diagram>
</mxfile>
